<svg width="18" height="17" viewBox="0 0 18 17" fill="none" xmlns="http://www.w3.org/2000/svg">
    <rect width="18" height="17" rx="5" fill="#D79834"/>
    <path d="M9.6465 12H8.209L7.2545 9.792C7.2315 9.73067 7.1855 9.6195 7.1165 9.4585C7.05517 9.28983 6.98233 9.102 6.898 8.895C6.82133 8.68033 6.74083 8.46183 6.6565 8.2395C6.57217 8.01717 6.4955 7.814 6.4265 7.63C6.4265 7.82933 6.4265 8.05933 6.4265 8.32C6.4265 8.58067 6.4265 8.84517 6.4265 9.1135C6.4265 9.38183 6.42267 9.63483 6.415 9.8725C6.415 10.1102 6.41117 10.298 6.4035 10.436L6.346 12H4.598L5.058 4.2145H6.691L8.485 8.6995C8.53867 8.8375 8.60767 9.033 8.692 9.286C8.784 9.53133 8.87217 9.79967 8.9565 10.091C9.04083 9.80733 9.12517 9.54283 9.2095 9.2975C9.3015 9.0445 9.37817 8.84517 9.4395 8.6995L11.2335 4.2145H12.832L13.292 12H11.5095L11.4405 10.436C11.4328 10.2903 11.4252 10.0987 11.4175 9.861C11.4175 9.62333 11.4175 9.37417 11.4175 9.1135C11.4175 8.84517 11.4175 8.58067 11.4175 8.32C11.4252 8.05167 11.429 7.82167 11.429 7.63C11.3677 7.791 11.2987 7.975 11.222 8.182C11.153 8.38133 11.0802 8.57683 11.0035 8.7685C10.9268 8.96017 10.854 9.14033 10.785 9.309C10.716 9.47 10.6623 9.5965 10.624 9.6885L9.6465 12Z" fill="white"/>
</svg>
