<svg width="18" height="17" viewBox="0 0 18 17" fill="none" xmlns="http://www.w3.org/2000/svg">
    <rect width="18" height="17" rx="5" fill="#BF73A0"/>
    <path d="M9.681 8.9465C9.62733 8.77783 9.5775 8.60533 9.5315 8.429C9.49317 8.25267 9.45483 8.084 9.4165 7.923C9.38583 7.762 9.35517 7.61633 9.3245 7.486C9.3015 7.35567 9.2785 7.25217 9.2555 7.1755C9.24017 7.25217 9.21717 7.36333 9.1865 7.509C9.15583 7.65467 9.12133 7.81183 9.083 7.9805C9.05233 8.14917 9.01783 8.32167 8.9795 8.498C8.94117 8.67433 8.899 8.83533 8.853 8.981L7.7605 12.5H6.231L4.069 4.7145H5.955L6.691 7.6355C6.737 7.81183 6.77917 7.99583 6.8175 8.1875C6.85583 8.37917 6.89417 8.57467 6.9325 8.774C6.97083 8.96567 7.00533 9.1535 7.036 9.3375C7.06667 9.51383 7.0935 9.671 7.1165 9.809C7.17783 9.52533 7.25067 9.18417 7.335 8.7855C7.427 8.37917 7.52667 7.99967 7.634 7.647L8.508 4.7145H10.049L10.946 7.67C11.0763 8.09167 11.176 8.49417 11.245 8.8775C11.3217 9.25317 11.3907 9.579 11.452 9.855C11.4903 9.579 11.5402 9.25317 11.6015 8.8775C11.6628 8.50183 11.7472 8.0955 11.8545 7.6585L12.579 4.7145H14.488L12.326 12.5H10.7965L9.681 8.9465Z" fill="white"/>
</svg>
